<?xml version="1.0" encoding="utf-8"?>
<!-- Generator: Adobe Illustrator 16.0.0, SVG Export Plug-In . SVG Version: 6.00 Build 0)  -->
<!DOCTYPE svg PUBLIC "-//W3C//DTD SVG 1.1//EN" "http://www.w3.org/Graphics/SVG/1.1/DTD/svg11.dtd">
<svg version="1.1" id="Layer_1" xmlns:sketch="http://www.bohemiancoding.com/sketch/ns"
	 xmlns="http://www.w3.org/2000/svg" xmlns:xlink="http://www.w3.org/1999/xlink" x="0px" y="0px" width="140px" height="81.137px"
	 viewBox="0 2.863 140 81.137" enable-background="new 0 2.863 140 81.137" xml:space="preserve">
<title>Slice 1</title>
<description>Created with Sketch (http://www.bohemiancoding.com/sketch)</description>
<path id="Rectangle_10_copy" sketch:type="MSShapeGroup" opacity="0.7" fill="#F4F2E5" d="M140,59.968
	c0,13.181-11.234,23.866-25.1,23.866H25.1C11.238,83.834,0,73.151,0,59.968c0-11.17,8.068-20.547,18.969-23.149
	c1.664-6.979,6.734-12.728,13.463-15.58c2.438-9.974,11.842-17.405,23.073-17.405c5.413,0,10.402,1.726,14.392,4.632
	c4.035-1.682,8.496-2.615,13.184-2.615c17.812,0,32.314,13.464,32.863,30.272C129.322,36.643,140,47.117,140,59.968z"/>
</svg>
