<?xml version="1.0" encoding="utf-8"?>
<!-- Generator: Adobe Illustrator 16.0.0, SVG Export Plug-In . SVG Version: 6.00 Build 0)  -->
<!DOCTYPE svg PUBLIC "-//W3C//DTD SVG 1.1//EN" "http://www.w3.org/Graphics/SVG/1.1/DTD/svg11.dtd">
<svg version="1.1"
	 id="svg11699" inkscape:version="0.48.4 r9939" sodipodi:docname="New document 65" xmlns:dc="http://purl.org/dc/elements/1.1/" xmlns:cc="http://creativecommons.org/ns#" xmlns:rdf="http://www.w3.org/1999/02/22-rdf-syntax-ns#" xmlns:svg="http://www.w3.org/2000/svg" xmlns:sodipodi="http://sodipodi.sourceforge.net/DTD/sodipodi-0.dtd" xmlns:inkscape="http://www.inkscape.org/namespaces/inkscape"
	 xmlns="http://www.w3.org/2000/svg" xmlns:xlink="http://www.w3.org/1999/xlink" x="0px" y="0px" width="40px" height="40px"
	 viewBox="0 0 40 40" enable-background="new 0 0 40 40" xml:space="preserve">
<sodipodi:namedview  inkscape:pageshadow="2" fit-margin-bottom="0" fit-margin-right="0" inkscape:pageopacity="0.0" inkscape:window-x="1649" inkscape:window-y="24" inkscape:current-layer="layer1" inkscape:window-maximized="1" inkscape:document-units="px" inkscape:window-height="1056" inkscape:window-width="1871" id="base" pagecolor="#ffffff" bordercolor="#666666" borderopacity="1.0" inkscape:zoom="0.35" inkscape:cx="1235.6593" inkscape:cy="-225.19282" showgrid="false" fit-margin-top="0" fit-margin-left="0">
	</sodipodi:namedview>
<path fill="#F4F2E5" enable-background="new    " d="M30.106,26.906c-1.521,0-2.865,0.692-3.782,1.765L14.527,21.86
	c0.23-0.576,0.366-1.201,0.366-1.859c0-0.564-0.114-1.1-0.288-1.605l11.886-6.863c0.91,0.958,2.188,1.562,3.615,1.562
	c2.762,0,5.001-2.238,5.001-5c0-2.761-2.239-5-5.001-5c-2.761,0-4.999,2.239-4.999,5c0,0.521,0.104,1.015,0.25,1.487L13.43,16.467
	c-0.905-0.904-2.155-1.466-3.537-1.466c-2.762,0-5,2.238-5,5c0,2.763,2.238,5,5,5c1.283,0,2.441-0.497,3.326-1.291l12.061,6.963
	c-0.102,0.396-0.172,0.807-0.172,1.233c0,2.762,2.238,5,4.999,5c2.762,0,5.001-2.237,5.001-5
	C35.107,29.146,32.868,26.906,30.106,26.906z"/>
</svg>
